<?xml version="1.0" encoding="UTF-8"?>
<svg width="57" height="29" version="1.1" viewBox="0 0 57 29" xmlns="http://www.w3.org/2000/svg" xmlns:cc="http://creativecommons.org/ns#" xmlns:dc="http://purl.org/dc/elements/1.1/" xmlns:rdf="http://www.w3.org/1999/02/22-rdf-syntax-ns#">
 <metadata>
  <rdf:RDF>
   <cc:Work rdf:about="">
    <dc:format>image/svg+xml</dc:format>
    <dc:type rdf:resource="http://purl.org/dc/dcmitype/StillImage"/>
    <dc:title/>
   </cc:Work>
  </rdf:RDF>
 </metadata>
 <g transform="translate(-.16193 -.16193)">
  <path d="m0.23274 14.308-0.26726-14.192 57.021 0.10142-0.45812 28.283h-56.028zm4.7673 13.347c0-0.18976-0.9-1.1595-2-2.155-2.3566-2.1327-2.7144-1.3573-0.42857 0.92857 1.5013 1.5013 2.4286 1.9696 2.4286 1.2264zm49.506-1.6611c2.5563-2.8247 1.4683-3.0873-1.2198-0.29442-1.2178 1.2653-1.8501 2.3006-1.405 2.3006 0.4451 0 1.6263-0.90276 2.6248-2.0061zm-48.339-12.994c0.64167 0 0.88071-0.28596 0.53121-0.63546-0.80119-0.80119-5.6979 2.3429-5.6979 3.6585 0 0.53732 0.9 0.076947 2-1.0231s2.525-2 3.1667-2zm47.844-0.48863c-1.2818-1.3644-3.8336-2.7627-5.6706-3.1073s-3.3401-0.9919-3.3401-1.4384c0-1.5366-6.1562-6.9655-7.8269-6.9022-1.2652 0.047935-1.1594 0.27096 0.43397 0.91489 1.1589 0.46833 3.4089 2.4122 5 4.3198 1.7163 2.0576 4.2213 3.7529 6.1588 4.1681 1.7962 0.38487 4.0462 1.7434 5 3.0189s1.9234 2.1364 2.1547 1.9131c0.23134-0.2233-0.62813-1.5223-1.9099-2.8867zm-39.636-4.4558c-0.23641-0.24444-1.4298 0.60788-2.6521 1.894l-2.2222 2.3385 2.6521-1.894c1.4586-1.0417 2.4586-2.094 2.2222-2.3385zm6.403-1.6221c0.48216-0.86158 2.192-2.4336 3.7997-3.4934 1.6077-1.0598 2.3259-1.9299 1.5961-1.9335-0.72981-0.00362-2.6443 1.3108-4.2545 2.9209-1.6101 1.6101-3.713 3.1329-4.6731 3.384-1.3369 0.3496-1.2304 0.48362 0.45477 0.57247 1.2102 0.063801 2.5948-0.58893 3.077-1.4505z" fill="#f6f6f6"/>
  <path d="m2.6364 26.364c-3.493-3.493-3.5698-8.5211-0.18182-11.909 1.35-1.35 3.0375-2.4409 3.75-2.4241 0.7125 0.016724 0.39545 0.52267-0.70455 1.1243-5.0575 2.7663-6.1272 8.9679-2.1855 12.671 2.2362 2.1008 3.0833 2.1743 25.045 2.1743h22.731l2.4545-2.4545c4.8324-4.8324 2.0539-13.596-4.787-15.099-1.9134-0.42025-4.654-2.3257-6.7627-4.7019-3.0735-3.4634-4.2327-4.0614-8.7067-4.4913-4.114-0.3953-5.8641-0.06147-8.6259 1.6454-1.9056 1.1777-3.7203 2.8072-4.0326 3.6211-0.31231 0.81387-1.5945 1.4276-2.8492 1.3638-2.037-0.10357-2.0683-0.16993-0.29187-0.61945 1.0942-0.2769 2.5841-1.3523 3.3107-2.3897 4.7939-6.8443 18.566-6.1422 22.883 1.1665 1.0759 1.8214 2.7963 3.0137 4.9248 3.413 7.7992 1.4631 10.975 11.116 5.4687 16.623l-2.9231 2.9231h-45.881zm9.0859-16.414c1.2222-1.2862 2.4156-2.1385 2.6521-1.894 0.23641 0.24444-0.76359 1.2968-2.2222 2.3385l-2.6521 1.894z" fill="#6a6969"/>
 </g>
</svg>
